<?xml version="1.0" encoding="utf-8"?>
<!-- Generator: Adobe Illustrator 25.4.1, SVG Export Plug-In . SVG Version: 6.00 Build 0)  -->
<svg version="1.1" id="Layer_1" xmlns="http://www.w3.org/2000/svg" xmlns:xlink="http://www.w3.org/1999/xlink" x="0px" y="0px"
	 viewBox="0 0 448.2 93.7" style="enable-background:new 0 0 448.2 93.7;" xml:space="preserve">
<style type="text/css">
	.st0{fill:#F1A000;}
	.st1{fill:#FFFFFF;}
</style>
<g>
	<g>
		<path class="st0" d="M83.5,10.1C67.5-5.9,38-2.5,17.7,17.7C-2.5,38-5.9,67.5,10.1,83.5c16.1,16.1,45.5,12.7,65.8-7.6
			C96.2,55.7,99.6,26.2,83.5,10.1z M11.3,82.7C-3,68.3,1.4,40.7,21.1,21C40.8,1.3,68.5-3.1,82.8,11.2c14.3,14.3,10,42-9.7,61.7
			C53.3,92.6,25.6,97,11.3,82.7z"/>
		<path class="st0" d="M55.1,37.3c-2.7,0-4.8,0.3-7.7,0.3c-1.8,0-4.5-0.1-7.3-0.3v0.3c3.2,0.5,4.8,1.6,5,5.1
			c0.3,5.3,0.3,10.1,0.3,16.1c0,2.9,0,5.4,0,7.9c0,1.6-0.1,3.3-0.3,4.9c-0.8,8.6-2.7,13.9-7.8,17.5l0.2,0.3
			c8.1-4.5,12.1-9.1,13-18.4c0.2-1.5,0.3-3,0.3-4.4c0-2.4,0-4.9,0-7.9c0-6,0-10.3,0.3-19c1.1-0.2,2.1-0.3,3.2-0.3c5.9,0,9,4.4,9,9.8
			c0,3.8-1.6,10.9-10,11.4V61c9.1-0.3,15.6-5.3,15.6-13C68.9,41.3,64,37.3,55.1,37.3z"/>
		<path class="st0" d="M37.2,53.7c-3.8-0.3-4.9-1.7-3.6-5.1c0.9-2.6,11.7-28.9,13.9-34.1c4.1,7.7,6.4,12,11.1,21.5
			c3,0.3,5.4,1.2,7.2,2.6C59.7,25.2,55.6,17.9,49,4.2h-0.1C45.8,12.3,34.4,38.5,30,48.5c-1.5,3.5-3.4,4.9-5.3,5.2V54
			c2-0.2,4-0.3,6.1-0.3c1.8,0,4.3,0.2,6.4,0.3V53.7z"/>
		<path class="st0" d="M48.4,35.5c0-2.2,1.9-4,4.2-4v-0.6c-2.3,0-4.2-1.8-4.2-4h-0.6c0,2.2-1.9,4-4.2,4v0.6c2.3,0,4.2,1.8,4.2,4
			H48.4z"/>
	</g>
	<g>
		<g>
			<path class="st1" d="M204.9,74.5c0,1.5-1.4,2.3-3.4,2.3c-1.4,0-2.2-1.1-2.2-1.1l0.8-0.6c0,0,0.4,0.8,1.5,0.8c1,0,1-1.4,1-1.4
				V62.3h2.3V74.5z"/>
			<path class="st1" d="M222.8,76.5h-9.1V62.3h9.1v1h-6.6v5.2h5.5v1.2h-5.5v5.9h6.6V76.5z"/>
			<path class="st1" d="M249.2,62.3l-5.6,14.5l-3.5-9.2l-3.4,9.2l-5.4-14.5h2.5l3.5,9.4l3.5-9.4l3.6,9.3l3.6-9.3H249.2z"/>
			<path class="st1" d="M266.9,76.5h-9.1V62.3h9.1v1h-6.6v5.2h5.5v1.2h-5.5v5.9h6.6V76.5z"/>
			<path class="st1" d="M285,75.3v1.2h-9.3V62.3h2.3v13H285z"/>
			<path class="st1" d="M302.8,75.3v1.2h-9.3V62.3h2.3v13H302.8z"/>
			<path class="st1" d="M320.5,76.5h-9.1V62.3h9.1v1h-6.6v5.2h5.5v1.2h-5.5v5.9h6.6V76.5z"/>
			<path class="st1" d="M337.3,76.5l-4.5-6.3h-1.1v6.3h-2.5V62.3h2.5c2.3,0,6.6,0,6.6,4c0,2.2-1.3,3.2-2.9,3.6l4.8,6.6H337.3z
				 M335.8,66.3c0-3-2.7-3-2.7-3l-1.3,0v5.9h1.3c0.4,0,1,0,1.6-0.3l0,0C335.3,68.5,335.8,67.8,335.8,66.3z"/>
			<path class="st1" d="M357.3,71.1c0.3,0.5,0.4,1.1,0.4,1.6c0,1.2-0.5,2.2-1.4,2.9c-0.9,0.7-2,1.1-3.2,1.1c-0.4,0-0.8,0-1.1-0.1
				c-0.5-0.1-1-0.2-1.5-0.4c-0.5-0.2-1.1-0.7-1.6-1.5c-0.4-0.5-0.6-1.2-0.7-2.1h1c0.1,0.5,0.2,0.8,0.3,1.1c0.3,0.6,0.8,1,1.5,1.4
				c0.6,0.3,1.3,0.5,2,0.5s1.3-0.2,1.8-0.5c0.5-0.4,0.8-0.9,0.8-1.6c0-0.7-0.4-1.3-1.1-1.9c-0.5-0.3-1.3-0.8-2.4-1.4
				c-1.1-0.6-1.9-1.1-2.4-1.5c-1.1-0.8-1.6-1.8-1.6-3c0-1.1,0.4-2.1,1.3-2.8c0.8-0.7,1.8-1,3-1h0c1.3,0.1,2.3,0.3,2.8,0.8
				c0.5,0.4,0.9,0.9,1.2,1.4c0.2,0.4,0.3,0.9,0.4,1.3h-1c-0.3-0.9-0.7-1.6-1.2-1.8c-0.7-0.4-1.4-0.6-2.1-0.5c-0.6,0-1.1,0.2-1.6,0.6
				c-0.5,0.4-0.7,0.9-0.7,1.4c0,0.4,0.1,0.7,0.4,1.1c0.4,0.5,1.4,1.2,3,2c1.1,0.6,1.8,1,2.2,1.2C356.4,69.9,357,70.5,357.3,71.1z"/>
		</g>
		<g>
			<circle class="st1" cx="147.4" cy="43.7" r="3.4"/>
			<g>
				<path class="st1" d="M136.5,43.7c-5.6-11.7-8.1-17.1-12.5-26.8H124c-2.6,6.7-7.8,18.8-11.3,26.8c-1.1,2.5-2.5,3.8-3.8,4v0.3
					c1.2-0.1,2.7-0.3,4.4-0.3c1.4,0,3.2,0.1,4.6,0.3v-0.3c-2.7-0.3-3.4-1.5-2.4-4c0.6-1.4,5.6-14.3,7.1-17.8c0.8,1.8,3.1,6.8,5,11.1
					h-4.9l0,0.8c4.1,0,5.8,1.5,6.5,3c0.7,1.6,1.3,2.8,1.4,3.1c0.9,2.4-0.2,3.6-2.8,3.9v0.3c2.1-0.2,5-0.3,6.9-0.3s4.6,0.1,6,0.3
					v-0.3C138.5,47.3,137.7,46.1,136.5,43.7z"/>
				<path class="st1" d="M164.4,34.3c5.4-0.4,6.2-5.5,6.2-8.1c0-4.1-2.2-7.3-6.1-7.3c-0.5,0-1.1,0-1.7,0.2
					c-0.3,6.3-0.3,9.3-0.3,13.5c0,4.9,0,7,0.3,11.4c0.1,2.1,1,3.1,3.5,3.6v0.3c-2.1-0.1-4.5-0.3-6.4-0.3c-1.9,0-4.2,0.1-6.4,0.3
					v-0.3c2.5-0.5,3.4-1.5,3.6-3.7c0.3-3.8,0.3-6.9,0.3-11.3c0-4.2,0-7.3-0.2-11.2c-0.1-2.5-1.1-3.4-3.6-3.8v-0.3
					c1.9,0.2,4.5,0.3,6,0.3c2.3,0,3.9-0.3,5.9-0.3c6.9,0,10.6,3.1,10.6,7.8c0,6-5.6,9.2-11.7,9.4V34.3z"/>
				<path class="st1" d="M177.9,32.7c0-8.9,6.7-15.8,16.3-15.8c9.2,0,16.5,6.6,16.5,15.7c0,8.9-6.6,15.8-16.2,15.8
					C185.2,48.3,177.9,41.7,177.9,32.7z M205,33.6c0-7.5-3.9-15-11.2-15c-6.3,0-10.3,5.6-10.3,12.9c0,7.6,4,15,11.3,15
					C201,46.6,205,41.1,205,33.6z"/>
				<path class="st1" d="M244.3,17.4v0.3c-2.1,0.5-3.3,1.4-3.4,3.7c-0.2,3.3-0.2,6.2-0.2,10.5c0,5.2,0,11.1,0,16.5h-0.1
					c-7.3-7.2-14.7-14.2-22.4-21.1v5c0,4.7,0.1,7.9,0.3,11.5c0.1,2.5,1.3,3.3,3.4,3.8v0.3c-2.2-0.2-3.7-0.3-5.1-0.3
					c-1.4,0-2.7,0.1-4.8,0.3v-0.3c2.1-0.5,3.3-1.4,3.4-3.7c0.2-3.7,0.2-6.9,0.2-11.6c0-4.9,0-10.6,0-15.4h0.1
					c7.5,7.3,14.9,14.3,22.4,21.1v-6.4c0-4.2-0.1-6.9-0.3-10.1c-0.1-2.4-1.3-3.3-3.4-3.8v-0.3c2.2,0.2,3.6,0.3,5,0.3
					C240.9,17.6,242.2,17.5,244.3,17.4z"/>
				<path class="st1" d="M276.6,17.4v0.3c-2.1,0.5-3.3,1.4-3.4,3.7c-0.2,3.3-0.2,6.2-0.2,10.5c0,5.2,0,11.1,0,16.5h-0.1
					c-7.3-7.2-14.7-14.2-22.4-21.1v5c0,4.7,0.1,7.9,0.3,11.5c0.1,2.5,1.3,3.3,3.4,3.8v0.3c-2.2-0.2-3.7-0.3-5.1-0.3
					c-1.4,0-2.7,0.1-4.8,0.3v-0.3c2.1-0.5,3.3-1.4,3.4-3.7c0.2-3.7,0.2-6.9,0.2-11.6c0-4.9,0-10.6,0-15.4h0.1
					c7.5,7.3,14.9,14.3,22.4,21.1v-6.4c0-4.2-0.1-6.9-0.3-10.1c-0.1-2.4-1.3-3.3-3.4-3.8v-0.3c2.2,0.2,3.6,0.3,5,0.3
					C273.1,17.6,274.4,17.5,276.6,17.4z"/>
				<path class="st1" d="M309.8,17.4v0.3c-2.1,0.3-3.3,1.1-3.4,3.6c-0.2,3.9-0.3,10-0.3,14.9c0,8-4.5,12.2-11.7,12.2
					c-7.3,0-12.4-4.4-12.4-12.6c0-5.4,0-10.6-0.3-14.5c-0.1-2.2-1.1-3.1-3.6-3.6v-0.3c2.1,0.1,4.4,0.3,6.4,0.3c2,0,4.3-0.1,6.4-0.3
					v0.3c-2.4,0.5-3.4,1.4-3.5,3.6c-0.3,4.3-0.3,9.4-0.3,14.6c0,7.2,2.8,10.5,8,10.5c5.1,0,8.1-3.2,8.1-10.1
					c0-3.6-0.1-11.5-0.3-14.9c-0.1-2.5-1.3-3.4-3.4-3.6v-0.3c2,0.2,3.5,0.3,5.1,0.3C306.1,17.6,307.8,17.5,309.8,17.4z"/>
				<path class="st1" d="M341.6,32.1c0,8.5-6.2,15.8-16.4,15.8c-1.9,0-4.8-0.3-7.3-0.3c-1.9,0-5.4,0.1-6.7,0.3v-0.3
					c2.6-0.6,3.4-1.3,3.5-3.6c0.1-2.4,0.2-5.8,0.2-11.4c0-5.4-0.1-9-0.2-11.4c-0.1-2.5-1.1-3.2-3.6-3.6v-0.3
					c1.5,0.1,4.1,0.3,5.7,0.3c2.3,0,4.5-0.3,7.1-0.3C334.8,17.4,341.6,23.2,341.6,32.1z M336,33.1c0-6.9-3.4-14.2-12.6-14.2
					c-0.9,0-2,0.1-3.1,0.2C320,25.1,320,28.5,320,33c0,5.1,0,7.5,0.2,9.3c0.3,3.1,2.7,3.9,5.5,3.9C332.6,46.2,336,40,336,33.1z"/>
				<path class="st1" d="M373.7,17.4v0.3c-2.1,0.3-3.3,1.1-3.4,3.6c-0.2,3.9-0.3,10-0.3,14.9c0,8-4.5,12.2-11.7,12.2
					c-7.3,0-12.4-4.4-12.4-12.6c0-5.4,0-10.6-0.3-14.5c-0.1-2.2-1.1-3.1-3.6-3.6v-0.3c2.1,0.1,4.4,0.3,6.4,0.3c2,0,4.3-0.1,6.4-0.3
					v0.3c-2.4,0.5-3.4,1.4-3.5,3.6c-0.3,4.3-0.3,9.4-0.3,14.6c0,7.2,2.8,10.5,8,10.5c5.1,0,8.1-3.2,8.1-10.1
					c0-3.6-0.1-11.5-0.3-14.9c-0.1-2.5-1.3-3.4-3.4-3.6v-0.3c2,0.2,3.5,0.3,5.1,0.3C370,17.6,371.6,17.5,373.7,17.4z"/>
				<path class="st1" d="M405.9,47.6v0.3c-13.8,0-11.2-2.5-18.1-12.6H387c-0.9,0-2.1,0-3.1-0.1c0,3.2,0.1,5.3,0.3,8.8
					c0.1,2.1,1,3.1,3.5,3.6v0.3c-2.1-0.1-4.5-0.3-6.4-0.3c-1.9,0-4.2,0.1-6.4,0.3v-0.3c2.5-0.5,3.4-1.5,3.6-3.7
					c0.3-3.8,0.3-6.9,0.3-11.3c0-1.7,0-8.6-0.2-11.5c-0.2-2.3-1.1-3-3.6-3.5v-0.3c2,0.2,4.2,0.3,5.8,0.3c2.2,0,4.3-0.2,6-0.2
					c7,0,10.8,3.6,10.8,8.5c0,3.2-1.6,6.1-4.4,7.8C398.1,42.4,400.9,47.5,405.9,47.6z M392.4,26.6c0-3.9-2-7.4-6.3-7.4
					c-0.6,0-1.2,0-1.9,0.2c-0.3,6.1-0.3,9.1-0.3,13.3v0.9c0.6,0.2,1.4,0.3,2.3,0.3C391.3,33.9,392.4,29.5,392.4,26.6z"/>
				<path class="st1" d="M448.2,17.6c-2.5,0.6-3.4,1.6-3.5,3.7c-0.3,4.3-0.3,6.4-0.3,11.3c0,4.9,0,7,0.3,11.3
					c0.1,2.2,1.1,3.2,3.5,3.7v0.3c-2.1-0.1-4.5-0.3-6.4-0.3c-1.9,0-4.2,0.1-6.4,0.3v-0.3c2.5-0.5,3.4-1.6,3.6-3.7
					c0.3-3.8,0.3-6.9,0.3-11.3c0-4.4,0-7.5-0.3-11.3c-0.1-2.2-1.1-3.2-3.6-3.7v-0.3c2.2,0.1,4.5,0.3,6.4,0.3c2,0,4.3-0.1,6.4-0.3
					V17.6z"/>
				<path class="st1" d="M431.1,43.7c-5.6-11.7-8.1-17.1-12.5-26.8h-0.1c-2.6,6.7-7.8,18.8-11.3,26.8c-1.1,2.5-2.5,3.8-3.8,4v0.3
					c1.2-0.1,2.7-0.3,4.4-0.3c1.4,0,3.2,0.1,4.6,0.3v-0.3c-2.7-0.3-3.4-1.5-2.4-4c0.6-1.4,5.6-14.3,7.1-17.8c0.8,1.8,3.1,6.8,5,11.1
					h-4.9l0,0.8c4.1,0,5.8,1.5,6.5,3c0.7,1.6,1.3,2.8,1.4,3.1c0.9,2.4-0.2,3.6-2.8,3.9v0.3c2.1-0.2,5-0.3,6.9-0.3s4.6,0.1,6,0.3
					v-0.3C433.1,47.3,432.3,46.1,431.1,43.7z"/>
				<path class="st1" d="M194.8,37.4c0-2.4,2.1-4.4,4.7-4.4v-0.7c-2.6,0-4.7-2-4.7-4.4h-0.7c0,2.4-2.1,4.4-4.7,4.4V33
					c2.6,0,4.7,2,4.7,4.4H194.8z"/>
			</g>
		</g>
	</g>
</g>
</svg>
