<svg width="200" height="200" viewBox="0 0 200 200" fill="none" xmlns="http://www.w3.org/2000/svg">
<path d="M168.142 31.6162C138.249 1.72299 83.452 8.04772 45.7501 45.7496C8.04819 83.4515 1.72349 138.242 31.6167 168.141C61.51 198.041 116.313 191.703 154.009 154.008C191.704 116.313 198.035 61.5095 168.142 31.6162ZM33.8006 166.495C7.15391 139.849 15.2736 88.3635 51.9452 51.7244C88.6167 15.0852 140.076 6.97194 166.71 33.6186C193.343 60.2652 185.237 111.757 148.604 148.39C111.971 185.022 60.4537 193.149 33.8006 166.495Z" fill="#F1A000"/>
<path d="M115.231 82.2012C110.183 82.2012 106.34 82.752 100.851 82.752C97.4492 82.752 92.427 82.5317 87.2428 82.104V82.752C93.1657 83.737 96.1337 85.7134 96.4577 92.1937C97.0085 102.07 97.0085 111.071 97.0085 122.048C97.0085 127.401 97.0409 132.066 97.0409 136.778C97.0276 139.833 96.8459 142.886 96.4966 145.921C95.0709 161.837 91.4485 171.719 82.0068 178.523L82.4475 179.171C97.4816 170.747 104.947 162.154 106.593 145.033C106.959 142.292 107.145 139.53 107.15 136.765C107.079 132.319 107.111 127.692 107.111 122.035C107.111 110.837 107.111 102.828 107.759 86.692C109.721 86.3742 111.702 86.1902 113.689 86.1412C124.666 86.1412 130.375 94.371 130.375 104.286C130.375 111.31 127.407 124.595 111.822 125.47V126.118C128.723 125.47 140.912 116.345 140.912 101.966C140.918 89.5563 131.697 82.2012 115.231 82.2012Z" fill="#F1A000"/>
<path d="M82.0079 112.555C74.8797 111.906 72.8967 109.373 75.3139 103.003C77.07 98.1749 97.1198 49.3271 101.073 39.665C108.635 53.9734 113.029 61.9765 121.706 79.7063C127.298 80.3544 131.821 81.9485 135.178 84.4628C123.779 59.6824 116.139 46.1258 103.93 20.5679H103.71C97.878 35.7121 76.7395 84.4498 68.6133 102.867C65.762 109.451 62.3599 111.978 58.8477 112.529V113.177C62.6009 112.763 66.3733 112.547 70.1492 112.529C73.4476 112.529 78.1652 112.859 82.0079 113.177V112.555Z" fill="#F1A000"/>
<path d="M102.75 78.7602C102.75 74.6777 106.263 71.3663 110.591 71.3663V70.1869C106.263 70.1869 102.75 66.8755 102.75 62.793H101.577C101.577 66.8755 98.0651 70.1869 93.7363 70.1869V71.3663C98.0651 71.3663 101.577 74.6777 101.577 78.7602H102.75Z" fill="#F1A000"/>
</svg>
