<svg width="374" height="103" viewBox="0 0 374 103" fill="none" xmlns="http://www.w3.org/2000/svg">
<path d="M70.0906 21.1595C56.7506 7.81946 32.2972 10.6419 15.4725 27.4666C-1.35224 44.2913 -4.17468 68.7418 9.16537 82.0848C22.5054 95.4277 46.9617 92.5995 63.7835 75.7777C80.6053 58.9558 83.4307 34.4996 70.0906 21.1595ZM10.1399 81.3502C-1.75132 69.459 1.87216 46.4833 18.2371 30.1329C34.602 13.7824 57.5661 10.1618 69.4515 22.0531C81.337 33.9443 77.7193 56.9229 61.3717 73.2704C45.0242 89.618 22.0341 93.2444 10.1399 81.3502Z" fill="#F1A000"/>
<path d="M46.4788 43.7333C44.226 43.7333 42.5112 43.9791 40.0618 43.9791C38.5436 43.9791 36.3024 43.8808 33.9889 43.6899V43.9791C36.6321 44.4187 37.9565 45.3007 38.1011 48.1925C38.3469 52.5997 38.3469 56.6165 38.3469 61.5152C38.3469 63.9039 38.3614 65.986 38.3614 68.0884C38.3555 69.4519 38.2743 70.8141 38.1185 72.1688C37.4823 79.2711 35.8658 83.6812 31.6523 86.7176L31.849 87.0068C38.5581 83.2474 41.8894 79.4128 42.624 71.7726C42.7874 70.5493 42.8705 69.3167 42.8727 68.0826C42.8409 66.0988 42.8553 64.034 42.8553 61.5094C42.8553 56.5123 42.8553 52.938 43.1445 45.7373C44.0199 45.5955 44.904 45.5134 45.7905 45.4916C50.6893 45.4916 53.237 49.1642 53.237 53.5887C53.237 56.7234 51.9126 62.6517 44.9577 63.0421V63.3313C52.4996 63.0421 57.9391 58.9704 57.9391 52.5534C57.942 47.0156 53.8269 43.7333 46.4788 43.7333Z" fill="#F1A000"/>
<path d="M31.6528 57.2786C28.4718 56.9894 27.5869 55.8587 28.6655 53.0161C29.4492 50.8616 38.3966 29.063 40.1606 24.7512C43.5354 31.1364 45.496 34.7078 49.3682 42.6199C51.8639 42.9091 53.8824 43.6205 55.3803 44.7425C50.2936 33.6841 46.8841 27.6344 41.4359 16.229H41.3376C38.7349 22.9872 29.3017 44.7367 25.6754 52.9553C24.403 55.8934 22.8848 57.0212 21.3174 57.267V57.5562C22.9923 57.3718 24.6757 57.2753 26.3607 57.267C27.8327 57.267 29.9379 57.4145 31.6528 57.5562V57.2786Z" fill="#F1A000"/>
<path d="M40.9093 42.1978C40.9093 40.3759 42.4766 38.8982 44.4084 38.8982V38.3719C42.4766 38.3719 40.9093 36.8941 40.9093 35.0723H40.3859C40.3859 36.8941 38.8185 38.3719 36.8867 38.3719V38.8982C38.8185 38.8982 40.3859 40.3759 40.3859 42.1978H40.9093Z" fill="#F1A000"/>
<path d="M123.149 52.017C124.712 52.017 125.978 50.7503 125.978 49.1877C125.978 47.6251 124.712 46.3584 123.149 46.3584C121.587 46.3584 120.32 47.6251 120.32 49.1877C120.32 50.7503 121.587 52.017 123.149 52.017Z" fill="white"/>
<path d="M114.133 49.1728C109.516 39.4825 107.354 34.937 103.786 26.9058H103.718C101.578 32.436 97.2357 42.5152 94.31 49.1371C93.3574 51.2529 92.2656 52.2733 91.1382 52.4481V52.6622C92.343 52.5258 93.5542 52.4544 94.7667 52.4481C95.8942 52.4481 97.4105 52.5551 98.5736 52.6622V52.4481C96.3544 52.2019 95.7907 51.2172 96.5649 49.1371C97.0216 47.974 101.25 37.2276 102.448 34.3376C103.14 35.8004 105.014 39.9606 106.598 43.5213H102.53V44.1457C105.913 44.1457 107.376 45.4159 107.911 46.6147C108.496 47.9205 108.96 48.9552 109.052 49.2085C109.827 51.2172 108.874 52.2376 106.726 52.4481V52.6622C108.453 52.5195 110.918 52.4481 112.47 52.4481C114.022 52.4481 116.274 52.5551 117.465 52.6622V52.4481C115.753 52.1341 115.082 51.1815 114.133 49.1728Z" fill="white"/>
<path d="M137.246 41.3525C141.72 41.0349 142.427 36.7713 142.427 34.6556C142.427 31.2376 140.557 28.633 137.389 28.633C136.904 28.6328 136.42 28.6794 135.944 28.7722C135.73 33.9884 135.73 36.5252 135.73 40.011C135.73 44.0997 135.765 45.8623 135.98 49.4551C136.083 51.2176 136.825 52.0632 138.902 52.4842V52.6983C137.139 52.5913 135.202 52.4842 133.582 52.4842C131.962 52.4842 130.06 52.5913 128.262 52.6983V52.4842C130.307 52.0632 131.116 51.2176 131.22 49.4194C131.434 46.2476 131.434 43.6752 131.434 40.011C131.434 36.5252 131.434 33.917 131.256 30.6738C131.152 28.633 130.342 27.8909 128.298 27.5056V27.2915C129.846 27.4342 132.033 27.5056 133.264 27.5056C135.166 27.5056 136.475 27.2915 138.163 27.2915C143.907 27.2915 146.936 29.8283 146.936 33.7422C146.936 38.7373 142.298 41.3525 137.246 41.563V41.3525Z" fill="white"/>
<path d="M148.496 40.0462C148.496 32.6143 154.101 26.9058 162.025 26.9058C169.707 26.9058 175.697 32.3681 175.697 39.9071C175.697 47.3068 170.203 53.0119 162.239 53.0119C154.511 53.0119 148.496 47.553 148.496 40.0462ZM171.048 40.7883C171.048 34.5517 167.805 28.3508 161.747 28.3508C156.53 28.3508 153.148 32.989 153.148 39.0972C153.148 45.4016 156.459 51.5847 162.521 51.5847C167.687 51.5669 171.037 47.025 171.037 40.7883H171.048Z" fill="white"/>
<path d="M203.662 27.3054V27.5194C201.903 27.9404 200.95 28.6469 200.843 30.6199C200.704 33.3672 200.669 35.7648 200.669 39.3576C200.669 43.689 200.669 48.5877 200.704 53.0261H200.633C194.607 47.0713 188.441 41.2236 182.08 35.515V39.7108C182.08 43.6355 182.151 46.2614 182.29 49.2941C182.398 51.335 183.361 52.0414 185.109 52.4624V52.6765C183.325 52.5338 182.009 52.4624 180.881 52.4624C179.754 52.4624 178.662 52.5338 176.899 52.6765V52.4624C178.662 52.0414 179.611 51.3349 179.718 49.3619C179.861 46.2971 179.896 43.6533 179.896 39.7287C179.896 35.6791 179.896 30.9553 179.861 26.9058H179.929C186.129 32.9997 192.33 38.8153 198.499 44.4168V39.065C198.499 35.5757 198.428 33.3208 198.285 30.6449C198.182 28.6362 197.215 27.9297 195.467 27.5087V27.2946C197.251 27.4374 198.464 27.5087 199.627 27.5087C200.79 27.5087 201.903 27.4338 203.662 27.3054Z" fill="white"/>
<path d="M230.443 27.3054V27.5194C228.68 27.9404 227.728 28.6469 227.624 30.6199C227.481 33.3672 227.446 35.7648 227.446 39.3576C227.446 43.689 227.446 48.5877 227.481 53.0261H227.41C221.388 47.0713 215.222 41.2236 208.857 35.515V39.7108C208.857 43.6355 208.929 46.2614 209.068 49.2941C209.175 51.335 210.138 52.0414 211.886 52.4624V52.6765C210.102 52.5338 208.786 52.4624 207.658 52.4624C206.531 52.4624 205.439 52.5338 203.68 52.6765V52.4624C205.439 52.0414 206.392 51.3349 206.499 49.3619C206.638 46.2971 206.674 43.6533 206.674 39.7287C206.674 35.6791 206.674 30.9553 206.638 26.9058H206.709C212.91 32.9997 219.111 38.8153 225.262 44.4168V39.065C225.262 35.5757 225.191 33.3208 225.052 30.6449C224.945 28.6362 223.981 27.9297 222.233 27.5087V27.2946C224.017 27.4374 225.227 27.5087 226.39 27.5087C227.553 27.5087 228.68 27.4338 230.443 27.3054Z" fill="white"/>
<path d="M258.064 27.3052V27.5192C256.302 27.7297 255.317 28.4326 255.21 30.5127C255.035 33.7916 254.928 38.8294 254.928 42.8789C254.928 49.5401 251.228 53.0259 245.238 53.0259C239.144 53.0259 234.952 49.3974 234.952 42.5293C234.952 38.0516 234.916 33.7202 234.741 30.5127C234.634 28.7288 233.824 27.9402 231.78 27.5192V27.3052C233.542 27.4122 235.444 27.5192 237.099 27.5192C238.755 27.5192 240.667 27.4122 242.419 27.3052V27.5192C240.414 27.9402 239.601 28.6467 239.497 30.477C239.287 34.0449 239.251 38.2657 239.251 42.6078C239.251 48.5982 241.541 51.3455 245.909 51.3455C250.136 51.3455 252.638 48.7053 252.638 42.961C252.638 39.9675 252.534 33.4134 252.356 30.5591C252.252 28.479 251.264 27.7405 249.501 27.53V27.3159C251.193 27.4586 252.427 27.53 253.765 27.53C254.999 27.505 256.373 27.4336 258.064 27.3052Z" fill="white"/>
<path d="M284.492 39.5186C284.492 46.5651 279.311 52.6626 270.855 52.6626C269.271 52.6626 266.873 52.4485 264.761 52.4485C263.174 52.4485 260.251 52.5556 259.16 52.6626V52.4485C261.343 51.9919 261.943 51.3782 262.082 49.4551C262.221 47.532 262.26 44.6635 262.26 40.011C262.26 35.5012 262.189 32.5185 262.082 30.5347C261.978 28.4547 261.133 27.8909 259.124 27.5056V27.2915C260.391 27.3985 262.506 27.5056 263.844 27.5056C265.746 27.5056 267.616 27.2915 269.728 27.2915C278.819 27.3058 284.492 32.1188 284.492 39.5186ZM279.771 40.3998C279.771 34.6913 276.985 28.6259 269.339 28.6259C268.491 28.6345 267.644 28.6928 266.802 28.8007C266.556 33.7351 266.556 36.5537 266.556 40.3214C266.556 44.6028 266.556 46.558 266.699 48.0743C266.98 50.6111 268.954 51.2854 271.28 51.2854C277.02 51.2854 279.771 46.0728 279.771 40.3998Z" fill="white"/>
<path d="M311.094 27.3052V27.5192C309.332 27.7297 308.347 28.4326 308.24 30.5127C308.065 33.7916 307.958 38.8294 307.958 42.8789C307.958 49.5401 304.258 53.0259 298.268 53.0259C292.174 53.0259 287.981 49.3974 287.981 42.5293C287.981 38.0516 287.946 33.7202 287.771 30.5127C287.664 28.7288 286.854 27.9402 284.81 27.5192V27.3052C286.572 27.4122 288.474 27.5192 290.129 27.5192C291.785 27.5192 293.697 27.4122 295.449 27.3052V27.5192C293.44 27.9402 292.63 28.6467 292.527 30.477C292.313 34.0449 292.281 38.2657 292.281 42.6078C292.281 48.5982 294.568 51.3455 298.938 51.3455C303.166 51.3455 305.667 48.7053 305.667 42.961C305.667 39.9675 305.56 33.4134 305.385 30.5591C305.282 28.479 304.294 27.7405 302.531 27.53V27.3159C304.222 27.4586 305.457 27.53 306.795 27.53C308.029 27.505 309.406 27.4336 311.094 27.3052Z" fill="white"/>
<path d="M337.839 52.4479V52.662C326.35 52.662 328.537 50.5463 322.793 42.2331H322.158C321.384 42.2331 320.396 42.1975 319.621 42.1261C319.657 44.802 319.693 46.5288 319.868 49.4188C319.975 51.1813 320.713 52.0269 322.793 52.4479V52.662C321.031 52.555 319.093 52.4479 317.473 52.4479C315.854 52.4479 313.948 52.555 312.154 52.662V52.4479C314.195 52.0269 315.008 51.1813 315.112 49.3831C315.322 46.2113 315.322 43.6424 315.322 39.9782C315.322 38.601 315.322 32.8425 315.147 30.395C315.005 28.454 314.23 27.8974 312.186 27.4693V27.2588C313.877 27.3979 315.675 27.4693 317.013 27.4693C318.847 27.4693 320.61 27.2909 322.008 27.2909C327.785 27.2909 330.956 30.2879 330.956 34.3731C330.965 35.6845 330.632 36.9755 329.99 38.1187C329.347 39.2619 328.417 40.2176 327.292 40.8916C331.388 48.0809 333.714 52.3088 337.839 52.4479ZM326.668 34.9368C326.668 31.6972 324.977 28.8072 321.42 28.8072C320.887 28.8032 320.355 28.851 319.832 28.95C319.621 34.0235 319.621 36.5246 319.621 39.9782V40.7168C320.247 40.9168 320.902 41.012 321.559 40.9987C325.715 40.9987 326.668 37.4058 326.668 34.9368Z" fill="white"/>
<path d="M373 27.5056C370.923 27.9623 370.181 28.8079 370.078 30.6061C369.867 34.1739 369.831 35.8901 369.831 39.9789C369.831 44.0676 369.867 45.7909 370.078 49.3481C370.181 51.132 370.995 52.0275 373 52.4485V52.6626C371.241 52.5556 369.3 52.4485 367.68 52.4485C366.06 52.4485 364.159 52.5556 362.36 52.6626V52.4485C364.405 52.0275 365.215 51.1463 365.322 49.3481C365.532 46.1798 365.532 43.6395 365.532 39.9789C365.532 36.3182 365.532 33.7779 365.322 30.6061C365.215 28.8221 364.405 27.9266 362.36 27.5056V27.2915C364.144 27.3985 366.096 27.5056 367.68 27.5056C369.264 27.5056 371.248 27.3985 373 27.2915V27.5056Z" fill="white"/>
<path d="M358.835 49.1728C354.222 39.4825 352.056 34.937 348.488 26.9058H348.417C346.276 32.436 341.934 42.5152 339.012 49.1371C338.06 51.2529 336.968 52.2733 335.84 52.4481V52.6622C337.045 52.5257 338.256 52.4543 339.469 52.4481C340.596 52.4481 342.113 52.5551 343.272 52.6622V52.4481C341.053 52.2019 340.489 51.2172 341.267 49.1371C341.724 47.974 345.952 37.2276 347.15 34.3376C347.839 35.8004 349.716 39.9606 351.3 43.5213H347.225V44.1457C350.611 44.1457 352.074 45.4159 352.609 46.6147C353.194 47.9205 353.655 48.9552 353.747 49.2085C354.525 51.2172 353.573 52.2376 351.425 52.4481V52.6622C353.148 52.5195 355.617 52.4481 357.165 52.4481C358.714 52.4481 360.972 52.5551 362.16 52.6622V52.4481C360.459 52.1341 359.788 51.1815 358.835 49.1728Z" fill="white"/>
<path d="M162.525 43.9493C162.525 41.9227 164.266 40.2779 166.417 40.2779V39.6928C164.276 39.6928 162.525 38.048 162.525 36.0215H161.939C161.939 38.048 160.198 39.6928 158.047 39.6928V40.2779C160.188 40.2779 161.939 41.9227 161.939 43.9493H162.525Z" fill="white"/>
<path d="M178.668 69.5804C179.972 69.5804 181.111 69.8329 182.086 70.3379C183.072 70.8312 183.83 71.5476 184.358 72.4871C184.899 73.4149 185.169 74.5013 185.169 75.7461C185.169 76.991 184.899 78.0715 184.358 78.9876C183.83 79.9036 183.072 80.6083 182.086 81.1015C181.111 81.583 179.972 81.8238 178.668 81.8238H174.669V69.5804H178.668ZM178.668 80.1855C180.101 80.1855 181.199 79.7979 181.963 79.0228C182.726 78.2477 183.108 77.1555 183.108 75.7461C183.108 74.3251 182.726 73.2153 181.963 72.4167C181.199 71.618 180.101 71.2187 178.668 71.2187H176.678V80.1855H178.668Z" fill="white"/>
<path d="M194.1 69.5804V81.8238H192.092V69.5804H194.1Z" fill="white"/>
<path d="M210.53 73.1037C210.213 72.493 209.773 72.035 209.209 71.7296C208.645 71.4125 207.994 71.254 207.254 71.254C206.443 71.254 205.721 71.436 205.087 71.8001C204.453 72.1642 203.953 72.6809 203.589 73.3503C203.237 74.0197 203.061 74.7949 203.061 75.6757C203.061 76.5565 203.237 77.3375 203.589 78.0187C203.953 78.6881 204.453 79.2048 205.087 79.5689C205.721 79.933 206.443 80.115 207.254 80.115C208.346 80.115 209.233 79.8097 209.914 79.199C210.595 78.5883 211.012 77.7603 211.164 76.715H206.567V75.112H213.314V76.6798C213.184 77.6311 212.844 78.506 212.292 79.3046C211.752 80.1033 211.041 80.7433 210.16 81.2248C209.291 81.6946 208.322 81.9295 207.254 81.9295C206.103 81.9295 205.052 81.6652 204.1 81.1368C203.149 80.5965 202.392 79.8508 201.828 78.8995C201.276 77.9482 201 76.8736 201 75.6757C201 74.4778 201.276 73.4032 201.828 72.4519C202.392 71.5006 203.149 70.7607 204.1 70.2322C205.063 69.692 206.114 69.4219 207.254 69.4219C208.557 69.4219 209.714 69.7448 210.724 70.3908C211.746 71.025 212.486 71.9293 212.944 73.1037H210.53Z" fill="white"/>
<path d="M222.235 69.5804V81.8238H220.227V69.5804H222.235Z" fill="white"/>
<path d="M238.666 73.1037C238.348 72.493 237.908 72.035 237.344 71.7296C236.781 71.4125 236.129 71.254 235.389 71.254C234.579 71.254 233.856 71.436 233.222 71.8001C232.588 72.1642 232.089 72.6809 231.725 73.3503C231.372 74.0197 231.196 74.7949 231.196 75.6757C231.196 76.5565 231.372 77.3375 231.725 78.0187C232.089 78.6881 232.588 79.2048 233.222 79.5689C233.856 79.933 234.579 80.115 235.389 80.115C236.481 80.115 237.368 79.8097 238.049 79.199C238.73 78.5883 239.147 77.7603 239.3 76.715H234.702V75.112H241.449V76.6798C241.32 77.6311 240.979 78.506 240.427 79.3046C239.887 80.1033 239.176 80.7433 238.296 81.2248C237.426 81.6946 236.458 81.9295 235.389 81.9295C234.238 81.9295 233.187 81.6652 232.236 81.1368C231.284 80.5965 230.527 79.8508 229.963 78.8995C229.411 77.9482 229.135 76.8736 229.135 75.6757C229.135 74.4778 229.411 73.4032 229.963 72.4519C230.527 71.5006 231.284 70.7607 232.236 70.2322C233.199 69.692 234.25 69.4219 235.389 69.4219C236.692 69.4219 237.849 69.7448 238.859 70.3908C239.881 71.025 240.621 71.9293 241.079 73.1037H238.666Z" fill="white"/>
<path d="M253.947 81.9471C252.807 81.9471 251.756 81.6829 250.793 81.1544C249.842 80.6141 249.084 79.8684 248.521 78.9171C247.969 77.9541 247.693 76.8736 247.693 75.6757C247.693 74.4778 247.969 73.4032 248.521 72.4519C249.084 71.5006 249.842 70.7607 250.793 70.2322C251.756 69.692 252.807 69.4219 253.947 69.4219C255.098 69.4219 256.149 69.692 257.1 70.2322C258.063 70.7607 258.82 71.5006 259.372 72.4519C259.924 73.4032 260.2 74.4778 260.2 75.6757C260.2 76.8736 259.924 77.9541 259.372 78.9171C258.82 79.8684 258.063 80.6141 257.1 81.1544C256.149 81.6829 255.098 81.9471 253.947 81.9471ZM253.947 80.2031C254.757 80.2031 255.479 80.021 256.113 79.657C256.748 79.2812 257.241 78.7527 257.593 78.0715C257.957 77.3786 258.139 76.58 258.139 75.6757C258.139 74.7714 257.957 73.9786 257.593 73.2975C257.241 72.6163 256.748 72.0937 256.113 71.7296C255.479 71.3655 254.757 71.1835 253.947 71.1835C253.136 71.1835 252.414 71.3655 251.78 71.7296C251.146 72.0937 250.646 72.6163 250.282 73.2975C249.93 73.9786 249.754 74.7714 249.754 75.6757C249.754 76.58 249.93 77.3786 250.282 78.0715C250.646 78.7527 251.146 79.2812 251.78 79.657C252.414 80.021 253.136 80.2031 253.947 80.2031Z" fill="white"/>
<path d="M269.117 80.2031H273.257V81.8238H267.109V69.5804H269.117V80.2031Z" fill="white"/>
<path d="M283.868 69.5804C285.172 69.5804 286.311 69.8329 287.286 70.3379C288.272 70.8312 289.03 71.5476 289.558 72.4871C290.099 73.4149 290.369 74.5013 290.369 75.7461C290.369 76.991 290.099 78.0715 289.558 78.9876C289.03 79.9036 288.272 80.6083 287.286 81.1015C286.311 81.583 285.172 81.8238 283.868 81.8238H279.869V69.5804H283.868ZM283.868 80.1855C285.301 80.1855 286.399 79.7979 287.162 79.0228C287.926 78.2477 288.308 77.1555 288.308 75.7461C288.308 74.3251 287.926 73.2153 287.162 72.4167C286.399 71.618 285.301 71.2187 283.868 71.2187H281.878V80.1855H283.868Z" fill="white"/>
</svg>
