<?xml version="1.0" encoding="utf-8"?>
<!-- Generator: Adobe Illustrator 25.4.1, SVG Export Plug-In . SVG Version: 6.00 Build 0)  -->
<svg version="1.1" id="Layer_1" xmlns="http://www.w3.org/2000/svg" xmlns:xlink="http://www.w3.org/1999/xlink" x="0px" y="0px"
	 viewBox="0 0 242 51" style="enable-background:new 0 0 242 51;" xml:space="preserve">
<style type="text/css">
	.st0{fill:#F09F00;}
	.st1{fill:#FFFFFF;}
</style>
<g>
	<g>
		<g>
			<path class="st0" d="M38.3,8.7c-7.4-7.4-20.9-5.8-30.2,3.5S-2.7,35,4.6,42.3s20.9,5.8,30.2-3.5S45.7,16,38.3,8.7z M5.2,41.9
				c-6.6-6.6-4.6-19.3,4.5-28.3s21.7-11,28.3-4.5s4.6,19.3-4.5,28.3S11.8,48.5,5.2,41.9z"/>
		</g>
		<g>
			<g>
				<path class="st0" d="M25.3,21.1c-1.2,0-2.2,0.1-3.5,0.1c-0.8,0-2.1-0.1-3.4-0.2v0.2c1.5,0.2,2.2,0.7,2.3,2.3
					c0.1,2.4,0.1,4.7,0.1,7.4c0,1.3,0,2.5,0,3.6c0,1.1-0.1,1.6-0.1,2.3c-0.4,3.9-1.2,6.4-3.6,8l0.1,0.2c3.7-2.1,5.5-4.2,6-8.4
					c0.1-0.6,0.1-1.1,0.1-2l0,0c0-1.1,0-2.2,0-3.6c0-2.8,0-4.7,0.2-8.7c0.5-0.1,1.1-0.1,1.5-0.1c2.7,0,4.1,2,4.1,4.5
					c0,1.7-0.7,5-4.6,5.2V32c4.2-0.2,7.2-2.4,7.2-6C31.6,23,29.3,21.1,25.3,21.1z"/>
			</g>
			<g>
				<path class="st0" d="M17.1,28.6c-1.8-0.2-2.2-0.8-1.7-2.4c0.4-1.2,5.4-13.2,6.4-15.6c1.9,3.5,2.9,5.5,5.1,9.9
					c1.4,0.2,2.5,0.6,3.3,1.2c-2.8-6.1-4.7-9.5-7.7-15.8h-0.1c-1.4,3.7-6.6,15.7-8.7,20.3c-0.7,1.6-1.5,2.2-2.4,2.4v0.2
					c0.8-0.1,1.7-0.2,2.8-0.2c0.8,0,2,0.1,2.9,0.2L17.1,28.6z"/>
			</g>
			<g>
				<path class="st0" d="M22.2,20.3c0-1,0.9-1.8,1.9-1.8v-0.3c-1.1,0-1.9-0.8-1.9-1.8h-0.3c0,1-0.9,1.8-1.9,1.8v0.3
					c1.1,0,1.9,0.8,1.9,1.8H22.2z"/>
			</g>
		</g>
	</g>
	<g>
		<g>
			<path class="st1" d="M100.4,41.6c0,0.9-0.8,1.4-2.1,1.4c-0.8,0-1.4-0.7-1.4-0.7l0.5-0.4c0,0,0.2,0.5,0.9,0.5
				c0.6,0,0.6-0.8,0.6-0.8v-7.4h1.4V41.6z"/>
			<path class="st1" d="M111.3,42.8h-5.5v-8.6h5.5v0.6h-4V38h3.3v0.7h-3.3v3.6h4V42.8z"/>
			<path class="st1" d="M127.3,34.2l-3.4,8.8l-2.1-5.6l-2,5.6l-3.3-8.8h1.5l2.1,5.7l2.1-5.7l2.2,5.7l2.2-5.7H127.3z"/>
			<path class="st1" d="M138,42.8h-5.5v-8.6h5.5v0.6h-4V38h3.3v0.7H134v3.6h4V42.8z"/>
			<path class="st1" d="M148.9,42.1v0.7h-5.6v-8.6h1.4v7.9H148.9z"/>
			<path class="st1" d="M159.8,42.1v0.7h-5.6v-8.6h1.4v7.9H159.8z"/>
			<path class="st1" d="M170.5,42.8H165v-8.6h5.5v0.6h-4V38h3.3v0.7h-3.3v3.6h4V42.8z"/>
			<path class="st1" d="M180.7,42.8L178,39h-0.7v3.8h-1.5v-8.6h1.5c1.4,0,4,0,4,2.4c0,1.3-0.8,1.9-1.7,2.2l2.9,4H180.7z M179.8,36.6
				c0-1.8-1.6-1.8-1.6-1.8l-0.8,0v3.6h0.8c0.2,0,0.6,0,1-0.2l0,0C179.5,38,179.8,37.5,179.8,36.6z"/>
			<path class="st1" d="M192.8,39.5c0.2,0.3,0.2,0.6,0.2,1c0,0.7-0.3,1.3-0.9,1.8c-0.5,0.4-1.2,0.6-1.9,0.6c-0.2,0-0.5,0-0.7,0
				c-0.3,0-0.6-0.1-0.9-0.3c-0.3-0.1-0.6-0.4-1-0.9c-0.2-0.3-0.4-0.8-0.4-1.3h0.6c0,0.3,0.1,0.5,0.2,0.7c0.2,0.4,0.5,0.6,0.9,0.8
				c0.4,0.2,0.8,0.3,1.2,0.3c0.4,0,0.8-0.1,1.1-0.3c0.3-0.2,0.5-0.5,0.5-0.9c0-0.4-0.2-0.8-0.7-1.1c-0.3-0.2-0.8-0.5-1.4-0.9
				c-0.7-0.4-1.2-0.7-1.5-0.9c-0.7-0.5-1-1.1-1-1.8c0-0.7,0.3-1.2,0.8-1.7c0.5-0.4,1.1-0.6,1.8-0.6h0c0.8,0,1.4,0.2,1.7,0.5
				c0.3,0.3,0.6,0.6,0.7,0.9c0.1,0.3,0.2,0.5,0.2,0.8h-0.6c-0.2-0.6-0.4-0.9-0.7-1.1c-0.4-0.2-0.8-0.4-1.3-0.3c-0.4,0-0.7,0.1-1,0.3
				c-0.3,0.2-0.4,0.5-0.4,0.9c0,0.2,0.1,0.4,0.2,0.6c0.3,0.3,0.9,0.7,1.8,1.2c0.7,0.4,1.1,0.6,1.3,0.7
				C192.3,38.8,192.6,39.2,192.8,39.5z"/>
		</g>
		<g>
			<circle class="st1" cx="70.1" cy="26" r="1.9"/>
			<g>
				<path class="st1" d="M63.9,26c-3.2-6.7-4.7-9.8-7.1-15.3h0c-1.5,3.8-4.5,10.7-6.5,15.3c-0.7,1.5-1.4,2.2-2.2,2.3v0.1
					c0.7-0.1,1.6-0.1,2.5-0.1c0.8,0,1.8,0.1,2.6,0.1v-0.1c-1.5-0.2-1.9-0.8-1.4-2.3c0.3-0.8,3.2-8.2,4-10.2c0.5,1,1.8,3.9,2.9,6.3
					h-2.8l0,0.4c2.3,0,3.3,0.9,3.7,1.7c0.4,0.9,0.7,1.6,0.8,1.8c0.5,1.4-0.1,2.1-1.6,2.2v0.1c1.2-0.1,2.9-0.1,4-0.1s2.6,0.1,3.4,0.1
					v-0.1C65,28.1,64.6,27.4,63.9,26z"/>
				<path class="st1" d="M79.8,20.7c3.1-0.2,3.6-3.2,3.6-4.6c0-2.4-1.3-4.1-3.5-4.1c-0.3,0-0.6,0-1,0.1c-0.1,3.6-0.1,5.3-0.1,7.7
					c0,2.8,0,4,0.2,6.5c0.1,1.2,0.6,1.8,2,2.1v0.1c-1.2-0.1-2.5-0.1-3.7-0.1c-1.1,0-2.4,0.1-3.7,0.1v-0.1c1.4-0.3,2-0.9,2-2.1
					c0.1-2.2,0.1-4,0.1-6.5c0-2.4,0-4.2-0.1-6.4c-0.1-1.4-0.6-1.9-2-2.2V11c1.1,0.1,2.6,0.1,3.4,0.1c1.3,0,2.2-0.1,3.4-0.1
					c4,0,6,1.7,6,4.4c0,3.4-3.2,5.2-6.7,5.4V20.7z"/>
				<path class="st1" d="M87.6,19.8c0-5.1,3.9-9,9.3-9c5.3,0,9.4,3.8,9.4,8.9c0,5.1-3.8,9-9.3,9C91.7,28.7,87.6,24.9,87.6,19.8z
					 M103.1,20.3c0-4.3-2.2-8.6-6.4-8.6c-3.6,0-5.9,3.2-5.9,7.4c0,4.3,2.3,8.6,6.4,8.6C100.8,27.7,103.1,24.6,103.1,20.3z"/>
				<path class="st1" d="M125.5,11v0.1c-1.2,0.3-1.9,0.8-1.9,2.1c-0.1,1.9-0.1,3.5-0.1,6c0,3,0,6.4,0,9.4h0
					c-4.1-4.1-8.4-8.1-12.8-12v2.9c0,2.7,0,4.5,0.1,6.6c0.1,1.4,0.7,1.9,1.9,2.2v0.1c-1.2-0.1-2.1-0.1-2.9-0.1c-0.8,0-1.5,0-2.7,0.1
					v-0.1c1.2-0.3,1.9-0.8,1.9-2.1c0.1-2.1,0.1-3.9,0.1-6.6c0-2.8,0-6,0-8.8h0c4.3,4.2,8.5,8.2,12.8,12v-3.7c0-2.4,0-4-0.1-5.8
					c-0.1-1.4-0.7-1.9-1.9-2.2V11c1.2,0.1,2.1,0.1,2.9,0.1S124.3,11.1,125.5,11z"/>
				<path class="st1" d="M143.9,11v0.1c-1.2,0.3-1.9,0.8-1.9,2.1c-0.1,1.9-0.1,3.5-0.1,6c0,3,0,6.4,0,9.4h0
					c-4.1-4.1-8.4-8.1-12.8-12v2.9c0,2.7,0,4.5,0.1,6.6c0.1,1.4,0.7,1.9,1.9,2.2v0.1c-1.2-0.1-2.1-0.1-2.9-0.1c-0.8,0-1.5,0-2.7,0.1
					v-0.1c1.2-0.3,1.9-0.8,1.9-2.1c0.1-2.1,0.1-3.9,0.1-6.6c0-2.8,0-6,0-8.8h0c4.3,4.2,8.5,8.2,12.8,12v-3.7c0-2.4,0-4-0.1-5.8
					c-0.1-1.4-0.7-1.9-1.9-2.2V11c1.2,0.1,2.1,0.1,2.9,0.1C141.9,11.1,142.7,11.1,143.9,11z"/>
				<path class="st1" d="M162.9,11v0.1c-1.2,0.1-1.9,0.6-2,2.1c-0.1,2.3-0.2,5.7-0.2,8.5c0,4.6-2.5,7-6.7,7c-4.2,0-7.1-2.5-7.1-7.2
					c0-3.1,0-6.1-0.1-8.3c-0.1-1.2-0.6-1.8-2-2.1V11c1.2,0.1,2.5,0.1,3.7,0.1c1.1,0,2.4-0.1,3.7-0.1v0.1c-1.4,0.3-1.9,0.8-2,2
					c-0.1,2.4-0.2,5.4-0.2,8.3c0,4.1,1.6,6,4.6,6c2.9,0,4.6-1.8,4.6-5.8c0-2.1-0.1-6.6-0.2-8.5c-0.1-1.4-0.8-1.9-2-2.1V11
					c1.2,0.1,2,0.1,2.9,0.1C160.8,11.1,161.8,11.1,162.9,11z"/>
				<path class="st1" d="M181.1,19.4c0,4.8-3.6,9-9.4,9c-1.1,0-2.7-0.1-4.2-0.1c-1.1,0-3.1,0.1-3.9,0.1v-0.1c1.5-0.3,1.9-0.7,2-2.1
					c0.1-1.4,0.1-3.3,0.1-6.5c0-3.1,0-5.2-0.1-6.5c-0.1-1.4-0.7-1.8-2-2.1V11c0.9,0.1,2.3,0.1,3.2,0.1c1.3,0,2.6-0.1,4-0.1
					C177.2,11,181.1,14.3,181.1,19.4z M177.9,20c0-3.9-1.9-8.1-7.2-8.1c-0.5,0-1.1,0-1.7,0.1c-0.2,3.4-0.2,5.3-0.2,7.9
					c0,2.9,0,4.3,0.1,5.3c0.2,1.7,1.6,2.2,3.2,2.2C176,27.5,177.9,23.9,177.9,20z"/>
				<path class="st1" d="M199.4,11v0.1c-1.2,0.1-1.9,0.6-2,2.1c-0.1,2.3-0.2,5.7-0.2,8.5c0,4.6-2.5,7-6.7,7c-4.2,0-7.1-2.5-7.1-7.2
					c0-3.1,0-6.1-0.1-8.3c-0.1-1.2-0.6-1.8-2-2.1V11c1.2,0.1,2.5,0.1,3.7,0.1c1.1,0,2.4-0.1,3.7-0.1v0.1c-1.4,0.3-1.9,0.8-2,2
					c-0.1,2.4-0.2,5.4-0.2,8.3c0,4.1,1.6,6,4.6,6c2.9,0,4.6-1.8,4.6-5.8c0-2.1-0.1-6.6-0.2-8.5c-0.1-1.4-0.8-1.9-2-2.1V11
					c1.2,0.1,2,0.1,2.9,0.1C197.3,11.1,198.3,11.1,199.4,11z"/>
				<path class="st1" d="M217.8,28.3v0.1c-7.9,0-6.4-1.5-10.3-7.2H207c-0.5,0-1.2,0-1.7-0.1c0,1.8,0,3,0.2,5c0.1,1.2,0.6,1.8,2,2.1
					v0.1c-1.2-0.1-2.5-0.1-3.7-0.1c-1.1,0-2.4,0.1-3.7,0.1v-0.1c1.4-0.3,2-0.9,2-2.1c0.1-2.2,0.1-4,0.1-6.5c0-0.9,0-4.9-0.1-6.6
					c-0.1-1.3-0.6-1.7-2-2V11c1.2,0.1,2.4,0.1,3.3,0.1c1.3,0,2.5-0.1,3.4-0.1c4,0,6.2,2.1,6.2,4.9c0,1.8-0.9,3.5-2.5,4.5
					C213.4,25.3,215,28.2,217.8,28.3z M210.1,16.2c0-2.2-1.2-4.2-3.6-4.2c-0.4,0-0.7,0-1.1,0.1c-0.1,3.5-0.1,5.2-0.1,7.6v0.5
					c0.4,0.1,0.8,0.2,1.3,0.2C209.5,20.4,210.1,17.9,210.1,16.2z"/>
				<path class="st1" d="M242,11.1c-1.4,0.3-1.9,0.9-2,2.1c-0.1,2.4-0.2,3.6-0.2,6.4c0,2.8,0,4,0.2,6.4c0.1,1.2,0.6,1.8,2,2.1v0.1
					c-1.2-0.1-2.5-0.1-3.7-0.1c-1.1,0-2.4,0.1-3.7,0.1v-0.1c1.4-0.3,2-0.9,2-2.1c0.1-2.2,0.1-3.9,0.1-6.4c0-2.5,0-4.3-0.1-6.4
					c-0.1-1.2-0.6-1.8-2-2.1V11c1.2,0.1,2.6,0.1,3.7,0.1c1.1,0,2.4-0.1,3.7-0.1V11.1z"/>
				<path class="st1" d="M232.3,26c-3.2-6.7-4.7-9.8-7.1-15.3h0c-1.5,3.8-4.5,10.7-6.5,15.3c-0.7,1.5-1.4,2.2-2.2,2.3v0.1
					c0.7-0.1,1.6-0.1,2.5-0.1c0.8,0,1.8,0.1,2.6,0.1v-0.1c-1.5-0.2-1.9-0.8-1.4-2.3c0.3-0.8,3.2-8.2,4-10.2c0.5,1,1.8,3.9,2.9,6.3
					h-2.8l0,0.4c2.3,0,3.3,0.9,3.7,1.7c0.4,0.9,0.7,1.6,0.8,1.8c0.5,1.4-0.1,2.1-1.6,2.2v0.1c1.2-0.1,2.9-0.1,4-0.1s2.6,0.1,3.4,0.1
					v-0.1C233.4,28.1,232.9,27.4,232.3,26z"/>
				<path class="st1" d="M97.2,22.4c0-1.4,1.2-2.5,2.7-2.5v-0.4c-1.5,0-2.7-1.1-2.7-2.5h-0.4c0,1.4-1.2,2.5-2.7,2.5v0.4
					c1.5,0,2.7,1.1,2.7,2.5H97.2z"/>
			</g>
		</g>
	</g>
</g>
</svg>
